<svg width="110" height="110" viewBox="0 0 110 110" fill="none" xmlns="http://www.w3.org/2000/svg">
<path d="M9.16663 87.0833H100.833M18.3333 32.0833C18.3333 29.6522 19.2991 27.3206 21.0181 25.6015C22.7372 23.8824 25.0688 22.9167 27.5 22.9167H82.5C84.9311 22.9167 87.2627 23.8824 88.9818 25.6015C90.7008 27.3206 91.6666 29.6522 91.6666 32.0833V73.3333H18.3333V32.0833Z" stroke="#222E3F" stroke-width="4" stroke-linecap="round" stroke-linejoin="round"/>
<path d="M54.1454 33C54.5333 33 54.9053 33.1541 55.1796 33.4284C55.4538 33.7026 55.6079 34.0746 55.6079 34.4625V62.7375C55.6079 63.1254 55.4538 63.4974 55.1796 63.7716C54.9053 64.0459 54.5333 64.2 54.1454 64.2C53.7575 64.2 53.3855 64.0459 53.1113 63.7716C52.837 63.4974 52.6829 63.1254 52.6829 62.7375V34.4625C52.6829 34.0746 52.837 33.7026 53.1113 33.4284C53.3855 33.1541 53.7575 33 54.1454 33ZM61.4579 38.85C61.8458 38.85 62.2178 39.0041 62.4921 39.2784C62.7663 39.5526 62.9204 39.9246 62.9204 40.3125V56.8875C62.9204 57.2754 62.7663 57.6474 62.4921 57.9216C62.2178 58.1959 61.8458 58.35 61.4579 58.35C61.07 58.35 60.698 58.1959 60.4238 57.9216C60.1495 57.6474 59.9954 57.2754 59.9954 56.8875V40.3125C59.9954 39.9246 60.1495 39.5526 60.4238 39.2784C60.698 39.0041 61.07 38.85 61.4579 38.85ZM48.2954 40.3125C48.2954 39.9246 48.1413 39.5526 47.8671 39.2784C47.5928 39.0041 47.2208 38.85 46.8329 38.85C46.445 38.85 46.073 39.0041 45.7988 39.2784C45.5245 39.5526 45.3704 39.9246 45.3704 40.3125V56.8875C45.3704 57.2754 45.5245 57.6474 45.7988 57.9216C46.073 58.1959 46.445 58.35 46.8329 58.35C47.2208 58.35 47.5928 58.1959 47.8671 57.9216C48.1413 57.6474 48.2954 57.2754 48.2954 56.8875V40.3125ZM68.2829 44.7C68.6708 44.7 69.0428 44.8541 69.3171 45.1284C69.5913 45.4026 69.7454 45.7746 69.7454 46.1625V51.0375C69.7454 51.4254 69.5913 51.7974 69.3171 52.0716C69.0428 52.3459 68.6708 52.5 68.2829 52.5C67.895 52.5 67.523 52.3459 67.2488 52.0716C66.9745 51.7974 66.8204 51.4254 66.8204 51.0375V46.1625C66.8204 45.7746 66.9745 45.4026 67.2488 45.1284C67.523 44.8541 67.895 44.7 68.2829 44.7V44.7ZM41.4704 46.1625C41.4704 45.7746 41.3163 45.4026 41.0421 45.1284C40.7678 44.8541 40.3958 44.7 40.0079 44.7C39.62 44.7 39.248 44.8541 38.9738 45.1284C38.6995 45.4026 38.5454 45.7746 38.5454 46.1625V51.0375C38.5454 51.4254 38.6995 51.7974 38.9738 52.0716C39.248 52.3459 39.62 52.5 40.0079 52.5C40.3958 52.5 40.7678 52.3459 41.0421 52.0716C41.3163 51.7974 41.4704 51.4254 41.4704 51.0375V46.1625Z" fill="#222E3F"/>
</svg>
