<svg width="494" height="110" viewBox="0 0 494 110" fill="none" xmlns="http://www.w3.org/2000/svg">
<path d="M142.32 83.12C137.76 83.12 133.787 82.04 130.4 79.88C127.04 77.6933 124.427 74.5733 122.56 70.52C120.693 66.4667 119.76 61.6 119.76 55.92C119.76 50.0533 120.72 45.1333 122.64 41.16C124.587 37.16 127.253 34.1467 130.64 32.12C134.053 30.0667 137.947 29.04 142.32 29.04C148.373 29.04 153.093 30.5067 156.48 33.44C159.893 36.3733 162.08 40.1867 163.04 44.88L152.96 46.72C152.133 44 150.813 41.8 149 40.12C147.187 38.44 144.96 37.6 142.32 37.6C140 37.6 137.907 38.28 136.04 39.64C134.173 40.9733 132.68 43 131.56 45.72C130.467 48.44 129.92 51.84 129.92 55.92C129.92 59.76 130.4 63.0667 131.36 65.84C132.347 68.6133 133.76 70.7467 135.6 72.24C137.44 73.7333 139.68 74.48 142.32 74.48C145.707 74.48 148.32 73.5867 150.16 71.8C152.027 69.9867 152.96 67.68 152.96 64.88H163.04C163.04 68.7467 162.2 72.04 160.52 74.76C158.867 77.4533 156.493 79.52 153.4 80.96C150.307 82.4 146.613 83.12 142.32 83.12ZM193.983 83.12C189.37 83.12 185.29 82.1067 181.743 80.08C178.223 78.0533 175.463 75.0267 173.463 71C171.463 66.9733 170.463 61.9733 170.463 56C170.463 49.92 171.463 44.8933 173.463 40.92C175.463 36.92 178.223 33.9467 181.743 32C185.29 30.0267 189.37 29.04 193.983 29.04C198.623 29.04 202.716 30.0533 206.263 32.08C209.81 34.08 212.583 37.08 214.583 41.08C216.583 45.08 217.583 50.0533 217.583 56C217.583 62.0533 216.583 67.0933 214.583 71.12C212.583 75.1467 209.81 78.16 206.263 80.16C202.716 82.1333 198.623 83.12 193.983 83.12ZM193.983 74.56C198.223 74.56 201.583 72.96 204.063 69.76C206.57 66.56 207.823 61.9467 207.823 55.92C207.823 50.1067 206.57 45.5867 204.063 42.36C201.583 39.1333 198.223 37.52 193.983 37.52C189.823 37.52 186.49 39.1467 183.983 42.4C181.476 45.6267 180.223 50.16 180.223 56C180.223 62 181.476 66.6 183.983 69.8C186.49 72.9733 189.823 74.56 193.983 74.56ZM228.753 30.08H245.553C250.833 30.08 255.459 31.1467 259.433 33.28C263.406 35.3867 266.499 38.3867 268.713 42.28C270.926 46.1733 272.033 50.7733 272.033 56.08C272.033 61.3333 270.926 65.9067 268.713 69.8C266.499 73.6667 263.406 76.6667 259.433 78.8C255.459 80.9333 250.833 82 245.553 82H228.753V30.08ZM238.193 38.64V73.52H245.553C248.913 73.52 251.806 72.76 254.233 71.24C256.686 69.72 258.566 67.6533 259.873 65.04C261.206 62.4 261.873 59.4133 261.873 56.08C261.873 52.6933 261.206 49.6933 259.873 47.08C258.566 44.4667 256.686 42.4133 254.233 40.92C251.806 39.4 248.913 38.64 245.553 38.64H238.193ZM283.594 82V30.08H316.954V38.24H293.034V51.92H315.514V60.08H293.034V73.76H316.954V82H283.594ZM350.862 30.08H367.662C372.942 30.08 377.569 31.1467 381.542 33.28C385.515 35.3867 388.609 38.3867 390.822 42.28C393.035 46.1733 394.142 50.7733 394.142 56.08C394.142 61.3333 393.035 65.9067 390.822 69.8C388.609 73.6667 385.515 76.6667 381.542 78.8C377.569 80.9333 372.942 82 367.662 82H350.862V30.08ZM360.302 38.64V73.52H367.662C371.022 73.52 373.915 72.76 376.342 71.24C378.795 69.72 380.675 67.6533 381.982 65.04C383.315 62.4 383.982 59.4133 383.982 56.08C383.982 52.6933 383.315 49.6933 381.982 47.08C380.675 44.4667 378.795 42.4133 376.342 40.92C373.915 39.4 371.022 38.64 367.662 38.64H360.302ZM405.704 82V30.08H439.064V38.24H415.144V51.92H437.624V60.08H415.144V73.76H439.064V82H405.704ZM468.897 71.68L482.177 30.08H492.097L474.257 82H464.337L446.737 30.08H456.737L469.857 71.68H468.897Z" fill="#222E3F"/>
<path d="M9.16663 87.0833H100.833M18.3333 32.0833C18.3333 29.6522 19.2991 27.3206 21.0181 25.6015C22.7372 23.8824 25.0688 22.9167 27.5 22.9167H82.5C84.9311 22.9167 87.2627 23.8824 88.9818 25.6015C90.7008 27.3206 91.6666 29.6522 91.6666 32.0833V73.3333H18.3333V32.0833Z" stroke="#222E3F" stroke-width="4" stroke-linecap="round" stroke-linejoin="round"/>
<path d="M54.1454 33C54.5333 33 54.9053 33.1541 55.1796 33.4284C55.4538 33.7026 55.6079 34.0746 55.6079 34.4625V62.7375C55.6079 63.1254 55.4538 63.4974 55.1796 63.7716C54.9053 64.0459 54.5333 64.2 54.1454 64.2C53.7575 64.2 53.3855 64.0459 53.1113 63.7716C52.837 63.4974 52.6829 63.1254 52.6829 62.7375V34.4625C52.6829 34.0746 52.837 33.7026 53.1113 33.4284C53.3855 33.1541 53.7575 33 54.1454 33ZM61.4579 38.85C61.8458 38.85 62.2178 39.0041 62.4921 39.2784C62.7663 39.5526 62.9204 39.9246 62.9204 40.3125V56.8875C62.9204 57.2754 62.7663 57.6474 62.4921 57.9216C62.2178 58.1959 61.8458 58.35 61.4579 58.35C61.07 58.35 60.698 58.1959 60.4238 57.9216C60.1495 57.6474 59.9954 57.2754 59.9954 56.8875V40.3125C59.9954 39.9246 60.1495 39.5526 60.4238 39.2784C60.698 39.0041 61.07 38.85 61.4579 38.85ZM48.2954 40.3125C48.2954 39.9246 48.1413 39.5526 47.8671 39.2784C47.5928 39.0041 47.2208 38.85 46.8329 38.85C46.445 38.85 46.073 39.0041 45.7988 39.2784C45.5245 39.5526 45.3704 39.9246 45.3704 40.3125V56.8875C45.3704 57.2754 45.5245 57.6474 45.7988 57.9216C46.073 58.1959 46.445 58.35 46.8329 58.35C47.2208 58.35 47.5928 58.1959 47.8671 57.9216C48.1413 57.6474 48.2954 57.2754 48.2954 56.8875V40.3125ZM68.2829 44.7C68.6708 44.7 69.0428 44.8541 69.3171 45.1284C69.5913 45.4026 69.7454 45.7746 69.7454 46.1625V51.0375C69.7454 51.4254 69.5913 51.7974 69.3171 52.0716C69.0428 52.3459 68.6708 52.5 68.2829 52.5C67.895 52.5 67.523 52.3459 67.2488 52.0716C66.9745 51.7974 66.8204 51.4254 66.8204 51.0375V46.1625C66.8204 45.7746 66.9745 45.4026 67.2488 45.1284C67.523 44.8541 67.895 44.7 68.2829 44.7V44.7ZM41.4704 46.1625C41.4704 45.7746 41.3163 45.4026 41.0421 45.1284C40.7678 44.8541 40.3958 44.7 40.0079 44.7C39.62 44.7 39.248 44.8541 38.9738 45.1284C38.6995 45.4026 38.5454 45.7746 38.5454 46.1625V51.0375C38.5454 51.4254 38.6995 51.7974 38.9738 52.0716C39.248 52.3459 39.62 52.5 40.0079 52.5C40.3958 52.5 40.7678 52.3459 41.0421 52.0716C41.3163 51.7974 41.4704 51.4254 41.4704 51.0375V46.1625Z" fill="#222E3F"/>
</svg>
